<?xml version="1.0" encoding="utf-8"?>
<!-- Generator: Adobe Illustrator 26.2.1, SVG Export Plug-In . SVG Version: 6.00 Build 0)  -->
<svg version="1.1" id="レイヤー_1" xmlns="http://www.w3.org/2000/svg" xmlns:xlink="http://www.w3.org/1999/xlink" x="0px"
	 y="0px" viewBox="0 0 32 32" style="enable-background:new 0 0 32 32;" xml:space="preserve">
<style type="text/css">
	.st0{fill:#C6C7C7;}
</style>
<g>
	<path class="st0" d="M29.9,14.2c-0.4-0.3-0.7-0.7-1-1C26.2,11,23.5,8.7,21,6.3c-1.6-1.5-3.2-2.9-4.8-4.4c-0.4-0.4-0.7-0.3-1.1,0
		c-1.9,1.9-4,3.7-5.8,5.7c-2.2,2.3-4.5,4.6-6.8,6.8c-0.6,0.5-1.2,1-1.4,1.8c5,4.7,9.9,9.4,14.9,14c0.1,0,0.3,0,0.4,0
		c1.5-1.7,3.1-3.3,4.7-4.9c0.8-0.8,1.6-1.4,2.4-2.3c2-2.2,4.1-4.3,6.2-6.4C31.1,15.4,31.4,15.5,29.9,14.2z M29.4,15.8
		c-1.4,1.5-2.8,2.9-4.2,4.4c-2.5,2.8-5.3,5.3-7.9,8c-1.1,1.2-1.1,1.1-2.3,0.1c-2.2-1.8-4-3.9-6.1-5.8c-2.1-1.8-4-3.8-6.1-5.6
		c-0.7-0.6-0.6-1.1,0-1.6c1.2-1.2,2.4-2.4,3.6-3.6c1.4-1.4,2.9-2.9,4.3-4.3c1.5-1.4,2.9-2.9,4.4-4.3c0.4-0.4,0.7-0.4,1.1-0.1
		c1.4,1.1,2.6,2.4,4,3.5c1.7,1.4,3.1,3,4.8,4.4c1.5,1.2,2.8,2.6,4.3,3.8c0.2,0.2,0.3,0.4,0.4,0.6C29.7,15.6,29.5,15.7,29.4,15.8z"/>
	<g>
		<polygon class="st0" points="16.4,16.3 16.4,16.3 16.4,16.3 		"/>
		<path class="st0" d="M13.2,14.2c-0.2-0.1-0.5-0.3-0.7-0.1c-0.4,0.4-0.1,0.8,0.1,1.1c0,0.1,0.1,0.2,0.1,0.2
			c0.1,0.5-0.1,1.1-0.2,1.7c0.5-0.2,0.5-0.6,0.6-0.9l0,0c0.2-0.3,0.4-0.5,0.5-0.8C13.8,14.9,13.6,14.5,13.2,14.2z"/>
		<path class="st0" d="M16,15.1c0,0-0.2,0-0.2,0c-0.1,0.4,0.3,0.6,0.4,0.9c0,0.1,0.1,0.2,0.2,0.3c0.2,0,0.6,0.1,0.5-0.2
			C16.8,15.6,16.4,15.4,16,15.1z"/>
		<path class="st0" d="M20.4,14.6c0.2,0,0.4-0.3,0.3-0.5c-0.2-0.5-0.5-0.7-1.2-0.4C20.1,13.9,19.7,14.6,20.4,14.6z"/>
		<path class="st0" d="M19,17.6c-0.6,0.2-1.1,0.4-1.7,0.9c0.8,0.1,1.3,0.2,1.8,0.3c0.4,0,0.6-0.2,0.7-0.5c0.1-0.2,0.2-0.4,0-0.6
			C19.5,17.4,19.3,17.5,19,17.6z"/>
		<path class="st0" d="M18.9,14.5c0-0.3-0.2-0.6-0.5-0.5c-0.4,0.1-0.9,0.2-0.9,0.7c0,0.4,0.3,0.8,0.7,0.8
			C18.8,15.4,18.8,14.8,18.9,14.5z"/>
		<path class="st0" d="M28.7,14.9c-0.6-0.4-1.1-0.9-1.6-1.4c-2.5-2.2-4.9-4.5-7.4-6.7c-0.7-0.7-1.5-1.3-2.1-2
			c-0.5-0.6-1.2-1-1.9-1.3c-0.3,0-0.3,0.2-0.5,0.3c-4.1,3.7-7.8,7.9-11.9,11.7c-0.3,0.3-0.5,0.6-0.1,0.9c0.5,0.4,0.8,0.9,1.3,1.3
			c1.2,1,2.3,2,3.4,3c2.5,2.4,5,4.7,7.4,7.1c0.6,0.6,1,0.5,1.6-0.1c2.1-2.3,4.4-4.5,6.6-6.7c1.7-1.7,3.4-3.5,5.1-5.2
			C29.1,15.5,29.1,15.3,28.7,14.9z M14.2,18.4C13,19,11.9,19.8,11,20.9c-0.2,0.2-0.5,0.3-0.8,0.4c-0.5,0.1-1.1-0.1-1.1-0.6
			C9,20.1,9.5,19.9,10,20c0.5,0,0.7-0.2,1-0.5c0.5-0.5,1.1-1.1,1.9-1.1c0.4,0,0.4-0.3,0.5-0.4c0.2-0.2,0.4-0.3,0.7-0.1
			c0.2,0.1,0.3,0.2,0.4,0.5C14.4,18.3,14.3,18.4,14.2,18.4z M22.9,20.8c-0.2,0.3-0.6,0.4-0.9,0.3c-0.2-0.1-0.5-0.1-0.7-0.3
			c-1.2-0.8-2.3-0.9-3.6-0.1c-0.9,0.5-1.9,0.6-3,0.3c0.7-0.6,1.6-0.3,2.2-0.7c0.2-0.1,0.7-0.1,0.7-0.5c0-0.3-0.4-0.2-0.6-0.3
			c-0.5-0.2-1-0.3-1.4-0.6c-0.2-0.2-0.3-0.4-0.3-0.6c0.1-0.3,0.3-0.3,0.5-0.3c0.9,0,1.5-0.7,2.3-1.1c-0.3-0.1-0.6,0.1-0.9,0.2
			c-0.5,0.1-0.9-0.1-0.7-0.8c-1.1-0.5-1.9-0.4-2.7,0.7c-0.7,1-2,1.2-3.2,1.6c-0.8,0.3-2-1.4-1.7-2.4c0.1-0.5,0.3-1.1,0.7-1.5
			c0.2-0.2,0.3-0.6,0.7-0.4c0.3,0.2,0.3,0.6,0.1,0.9c-0.6,0.9,0,1.4,0.6,1.9c0.2,0.2,0.5,0.3,0.7,0c0.2-0.2,0.4-0.5,0.1-0.7
			c-0.3-0.2-0.3-0.4-0.2-0.7c0.1-0.1,0.1-0.4,0.1-0.5c-1.2-1.3,0.6-2,0.6-3.1c-0.8,0.2-1.6,0.7-2.2,1.3c-0.3,0.3-0.5,0.9-0.9,0.6
			c-0.4-0.3,0.2-0.7,0.4-1.1c0.6-0.8,1.1-1.6,1.9-2.2c0.3-0.2,0.5-0.5,0.6-0.8C12,9.6,12,9.2,12.6,9.2c0.3,0,0.5,0.1,0.7,0.3
			c0.2,0.5-0.2,0.7-0.5,1c1.6,0.9,1.7,1.3,0.2,2.2c1.5,0.1,2.2,2,3.9,0.9c-0.4-0.3-0.7,0.2-1,0c-0.4-0.2-0.9-0.3-0.9-0.9
			c0-0.7-0.1-1.4,0.5-1.9c0.4-0.3,0.5,0.2,0.6,0.5c0.2,1.5,0.8,1.8,2,1c0.2-0.1,0.2-0.2,0-0.4c-0.2-0.2-0.7-0.4-0.4-0.8
			c0.3-0.4,0.7-0.2,1.1-0.1c0.3,0.1,0.6,0.5,0.9,0c0.2-0.3,0.2-0.6-0.1-0.9C19.3,9.9,19,9.7,18.5,10c-0.2,0.1-0.4,0.3-0.6,0.4
			c-0.2,0.1-0.4,0.3-0.6,0.1c-0.2-0.3,0-0.5,0.2-0.7c1-0.9,3-0.7,3.7,0.4c0.4,0.7,0.3,1.2-0.5,1.6c-0.7,0.3-1.3,0.6-1.9,1.1
			c0.6,0.2,1-0.1,1.4-0.2c0.7-0.2,1.3,0,1.8,0.4c0.8,0.6,0.7,1.3-0.2,1.8c-1.1,0.6-2.3,1.1-3.4,1.7l0,0h0c0.3,0.4,0.7,0.2,1.1,0
			c0.6-0.3,1.2-0.4,1.7,0.1c0.6,0.5,0.4,1,0.1,1.6c-0.3,0.5-0.1,0.8,0.4,1c0.3,0.2,0.7,0.4,1,0.7C23,20.1,23.2,20.4,22.9,20.8z"/>
	</g>
</g>
</svg>
